# xmcd
#
# Track frame offsets:
#	150
#	26839
#	46468
#	67525
#	91902
#	114447
#	138834
#	159801
#	179531
#	209272
#
# Disc length: 3094 seconds
#
# Revision: 0
# Processed by: cddbd v1.5.1PL2 Copyright (c) Steve Scherf et al.
# Submitted via: dBpowerAMP V4.0
#
DISCID=790c140a
DTITLE=Nac Gill - Vaadeyan
DYEAR=2005
DGENRE=Acid
TTITLE0=Vaadeyan
TTITLE1=hse
TTITLE2=fthrs
TTITLE3=Nain Naine Naal
TTITLE4=hs
TTITLE5=ugi
TTITLE6=dr
TTITLE7=jft
TTITLE8=jhj
TTITLE9=io
EXTD=
EXTT0=
EXTT1=
EXTT2=
EXTT3=
EXTT4=
EXTT5=
EXTT6=
EXTT7=
EXTT8=
EXTT9=
PLAYORDER=
